<?xml version="1.0" encoding="UTF-8"?>
<svg id="Layer_1" data-name="Layer 1" xmlns="http://www.w3.org/2000/svg" version="1.1" viewBox="0 0 507.63 507.63">
  <defs>
    <style>
      .cls-1 {
        fill: #ff2300;
      }

      .cls-1, .cls-2 {
        stroke-width: 0px;
      }

      .cls-2 {
        fill: #000;
      }
    </style>
  </defs>
  <g>
    <path class="cls-1" d="M253.82,507.07c-67.65,0-131.24-26.34-179.08-74.18S.57,321.46.57,253.82,26.91,122.57,74.74,74.74,186.17.57,253.82.57s131.24,26.34,179.08,74.18,74.18,111.43,74.18,179.08-26.34,131.24-74.18,179.08-111.43,74.18-179.08,74.18Z"/>
    <path class="cls-2" d="M253.82,1.13c34.11,0,67.2,6.68,98.36,19.86,30.09,12.73,57.11,30.95,80.32,54.15,23.21,23.21,41.43,50.23,54.15,80.32,13.18,31.15,19.86,64.24,19.86,98.36s-6.68,67.2-19.86,98.36c-12.73,30.09-30.95,57.11-54.15,80.32-23.21,23.21-50.23,41.43-80.32,54.15-31.15,13.18-64.24,19.86-98.36,19.86s-67.2-6.68-98.36-19.86c-30.09-12.73-57.11-30.95-80.32-54.15-23.21-23.21-41.43-50.23-54.15-80.32C7.81,321.02,1.13,287.93,1.13,253.82s6.68-67.2,19.86-98.36c12.73-30.09,30.95-57.11,54.15-80.32s50.23-41.43,80.32-54.15C186.61,7.81,219.7,1.13,253.82,1.13M253.82,0C113.64,0,0,113.64,0,253.82s113.64,253.82,253.82,253.82,253.82-113.64,253.82-253.82S393.99,0,253.82,0h0Z"/>
  </g>
  <g>
    <path class="cls-2" d="M253.82,387.43c-70.67,0-128.17-57.5-128.17-128.17s57.5-128.17,128.17-128.17,128.17,57.5,128.17,128.17-57.5,128.17-128.17,128.17Z"/>
    <path class="cls-2" d="M253.82,131.74c34.06,0,66.09,13.27,90.18,37.35,24.09,24.09,37.35,56.11,37.35,90.18s-13.27,66.09-37.35,90.18c-24.09,24.09-56.11,37.35-90.18,37.35s-66.09-13.27-90.18-37.35c-24.09-24.09-37.35-56.11-37.35-90.18s13.27-66.09,37.35-90.18c24.09-24.09,56.11-37.35,90.18-37.35M253.82,130.46c-71.14,0-128.81,57.67-128.81,128.81s57.67,128.81,128.81,128.81,128.81-57.67,128.81-128.81-57.67-128.81-128.81-128.81h0Z"/>
  </g>
</svg>